<?xml version="1.0" encoding="utf-8"?>
<!-- Generator: Adobe Illustrator 16.0.0, SVG Export Plug-In . SVG Version: 6.00 Build 0)  -->
<!DOCTYPE svg PUBLIC "-//W3C//DTD SVG 1.1//EN" "http://www.w3.org/Graphics/SVG/1.1/DTD/svg11.dtd">
<svg version="1.1" id="Layer_1" xmlns="http://www.w3.org/2000/svg" xmlns:xlink="http://www.w3.org/1999/xlink" x="0px" y="0px"
	 width="500px" height="500px" viewBox="0 0 500 500" enable-background="new 0 0 500 500" xml:space="preserve">
<path d="M119.235,497.646c23.977-33.812,12.953-18.743,36.931-52.558c14.508-20.46,29.021-40.922,43.528-61.387
	c28.662-40.419,23.834-88.609-6.215-125.974c-10.14-12.604-24.833-21.177-38.75-28.964c-5.481-3.067-10.924-6.195-16.297-9.45
	c-2.822-1.71-5.581-3.522-8.333-5.345c-1.854-1.25-3.686-2.531-5.494-3.847c2.988,2.401,2.814,2.246-0.52-0.465
	c-5.309-4.347-10.054-9.294-14.481-14.521c4.709,5.56-6.709-14.363-4.358-8.121c-5.007-13.288-3.811-27.059,0.385-42.371
	c0.075-0.279,4.269-11.973,1.302-4.958c1.274-3.016,2.822-5.908,4.366-8.791c1.507-2.811,11.803-16.811,4.647-7.9
	c2.998-3.735,6.832-6.605,9.928-10.155c2.475-2.836,13.788-11.936,4.262-4.623c4.011-3.078,8.285-5.787,12.611-8.389
	c2.634-1.584,5.363-3.002,8.088-4.42c2.001-1.015,4.023-1.989,6.065-2.917c-3.395,1.361-2.968,1.202,1.287-0.47
	c29.874-11.637,62.792-12.454,94.421-14.401c13.589-0.836,27.326-1.65,40.953-1.242c-12.337-12.334-24.669-24.671-37.007-37.006
	c0,138.733,0,277.465,0,416.199c0,1.725,0,3.448,0,5.175c0,20.175,16.833,37.005,37.007,37.005c59.704,0,179.111,0,179.111,0
	v-74.011l0,0c-59.706,0-119.407,0-179.111,0c12.335,12.336,24.669,24.668,37.006,37.006c0-138.732,0-277.466,0-416.2
	c0-1.724,0-3.449,0-5.174c0-20.628-16.847-36.403-37.006-37.006c-16.168-0.483-32.468,0.674-48.588,1.726
	c-41.878,2.734-83.411,5.939-122.191,23.063C89.278,41.946,58.514,68.68,43.025,102.33c-17.797,38.668-19.598,80.812-2.701,119.926
	c12.743,29.494,42.22,50.303,69.026,65.871c11.668,6.777,22.141,11.957,29.147,18.989c5.889,5.906,9.854,15.155,5.612,25.066
	c-5.031,11.744-14.069,22.27-21.439,32.662c-8.1,11.424-16.201,22.846-24.301,34.271c-26.014,36.686-45.028,61.842-71.042,98.529"/>
<path d="M122,544.5"/>
</svg>
